<svg xmlns="http://www.w3.org/2000/svg" width="120" height="24" fill="none"><path fill="#173A56" d="M16.91 8.72c0 1.22-.28 2.34-.84 3.36-.56 1-1.42 1.81-2.58 2.43-1.16.62-2.6.93-4.32.93H5.99V23H.86V1.94h8.31c1.68 0 3.1.29 4.26.87 1.16.58 2.03 1.38 2.61 2.4.58 1.02.87 2.19.87 3.51Zm-8.13 2.64c.98 0 1.71-.23 2.19-.69.48-.46.72-1.11.72-1.95 0-.84-.24-1.49-.72-1.95-.48-.46-1.21-.69-2.19-.69H5.99v5.28h2.79Zm15.93-2.31c.6-.92 1.35-1.64 2.25-2.16.9-.54 1.9-.81 3-.81v5.43h-1.41c-1.28 0-2.24.28-2.88.84-.64.54-.96 1.5-.96 2.88V23h-5.13V6.26h5.13v2.79Zm15.323 14.19c-1.64 0-3.12-.35-4.44-1.05-1.3-.7-2.33-1.7-3.09-3-.74-1.3-1.11-2.82-1.11-4.56 0-1.72.38-3.23 1.14-4.53.76-1.32 1.8-2.33 3.12-3.03 1.32-.7 2.8-1.05 4.44-1.05 1.64 0 3.12.35 4.44 1.05 1.32.7 2.36 1.71 3.12 3.03.76 1.3 1.14 2.81 1.14 4.53 0 1.72-.39 3.24-1.17 4.56-.76 1.3-1.81 2.3-3.15 3-1.32.7-2.8 1.05-4.44 1.05Zm0-4.44c.98 0 1.81-.36 2.49-1.08.7-.72 1.05-1.75 1.05-3.09 0-1.34-.34-2.37-1.02-3.09-.66-.72-1.48-1.08-2.46-1.08-1 0-1.83.36-2.49 1.08-.66.7-.99 1.73-.99 3.09 0 1.34.32 2.37.96 3.09.66.72 1.48 1.08 2.46 1.08Zm10.461-4.2c0-1.72.32-3.23.96-4.53.66-1.3 1.55-2.3 2.67-3 1.12-.7 2.37-1.05 3.75-1.05 1.1 0 2.1.23 3 .69.92.46 1.64 1.08 2.16 1.86V.8h5.13V23h-5.13v-2.4c-.48.8-1.17 1.44-2.07 1.92-.88.48-1.91.72-3.09.72-1.38 0-2.63-.35-3.75-1.05-1.12-.72-2.01-1.73-2.67-3.03-.64-1.32-.96-2.84-.96-4.56Zm12.54.03c0-1.28-.36-2.29-1.08-3.03-.7-.74-1.56-1.11-2.58-1.11s-1.89.37-2.61 1.11c-.7.72-1.05 1.72-1.05 3s.35 2.3 1.05 3.06c.72.74 1.59 1.11 2.61 1.11 1.02 0 1.88-.37 2.58-1.11.72-.74 1.08-1.75 1.08-3.03Zm25.372-8.37V23h-5.13v-2.28c-.52.74-1.23 1.34-2.13 1.8-.88.44-1.86.66-2.94.66-1.28 0-2.41-.28-3.39-.84-.98-.58-1.74-1.41-2.28-2.49-.54-1.08-.81-2.35-.81-3.81V6.26h5.1v9.09c0 1.12.29 1.99.87 2.61.58.62 1.36.93 2.34.93 1 0 1.79-.31 2.37-.93.58-.62.87-1.49.87-2.61V6.26h5.13Zm2.664 8.37c0-1.74.35-3.26 1.05-4.56.72-1.3 1.71-2.3 2.97-3 1.28-.7 2.74-1.05 4.38-1.05 2.1 0 3.85.55 5.25 1.65 1.42 1.1 2.35 2.65 2.79 4.65h-5.46c-.46-1.28-1.35-1.92-2.67-1.92-.94 0-1.69.37-2.25 1.11-.56.72-.84 1.76-.84 3.12s.28 2.41.84 3.15c.56.72 1.31 1.08 2.25 1.08 1.32 0 2.21-.64 2.67-1.92h5.46c-.44 1.96-1.37 3.5-2.79 4.62s-3.17 1.68-5.25 1.68c-1.64 0-3.1-.35-4.38-1.05-1.26-.7-2.25-1.7-2.97-3-.7-1.3-1.05-2.82-1.05-4.56Zm28.515 4.02V23h-2.61c-1.86 0-3.31-.45-4.35-1.35-1.04-.92-1.56-2.41-1.56-4.47v-6.66h-2.04V6.26h2.04V2.18h5.13v4.08h3.36v4.26h-3.36v6.72c0 .5.12.86.36 1.08.24.22.64.33 1.2.33h1.83Z"/></svg>